<?xml version="1.0" standalone="no"?>
<!DOCTYPE svg PUBLIC "-//W3C//DTD SVG 20010904//EN"
 "http://www.w3.org/TR/2001/REC-SVG-20010904/DTD/svg10.dtd">
<svg version="1.0" xmlns="http://www.w3.org/2000/svg"
 width="567.000000pt" height="567.000000pt" viewBox="0 0 567.000000 567.000000"
 preserveAspectRatio="xMidYMid meet">
<metadata>
Created by potrace 1.11, written by Peter Selinger 2001-2013
</metadata>
<g transform="translate(0.000000,567.000000) scale(0.100000,-0.100000)"
fill="#000000" stroke="none">
<path d="M150 5300 l0 -210 208 0 209 0 69 -72 c62 -66 443 -462 651 -679 46
-47 83 -89 83 -94 0 -10 -56 -71 -219 -240 -349 -360 -557 -579 -564 -591 -6
-11 -50 -14 -222 -14 l-215 0 0 -210 0 -210 655 0 655 0 0 210 0 210 -101 0
c-55 0 -99 4 -97 9 7 19 442 481 453 481 11 0 48 -38 342 -354 l122 -131 -117
-5 -117 -5 -3 -207 -2 -208 745 0 745 0 -2 208 -3 207 -197 3 -197 2 -58 64
c-32 34 -210 223 -395 419 -186 196 -338 359 -338 363 0 7 45 57 174 194 45
47 147 155 227 240 80 85 198 211 263 280 l118 125 201 5 202 5 3 208 2 207
-640 -2 -641 -3 0 -199 c0 -110 4 -203 8 -207 5 -5 52 -10 106 -11 l97 -3
-225 -245 c-124 -135 -229 -246 -234 -248 -5 -2 -108 103 -230 232 -122 129
-226 238 -231 241 -28 18 0 25 94 25 58 0 107 4 111 10 3 5 6 98 6 207 l1 198
-751 3 -751 2 0 -210z"/>
<path d="M1770 5237 l0 -277 -35 0 c-19 0 -35 -2 -35 -4 0 -7 191 -191 198
-191 9 0 182 179 182 188 0 4 -11 7 -25 7 l-25 0 0 160 c0 128 -3 161 -14 167
-8 4 -50 42 -93 83 -43 41 -95 91 -116 109 l-37 35 0 -277z"/>
<path d="M3540 5230 l0 -270 -233 0 -234 0 -54 -57 c-30 -32 -90 -96 -134
-143 -44 -47 -145 -155 -225 -240 -233 -248 -250 -266 -250 -276 0 -5 40 -49
88 -97 l88 -88 54 58 c151 162 363 387 448 476 l75 78 308 -1 c193 0 310 3
314 9 3 6 6 130 6 277 l0 266 -33 37 c-18 21 -71 83 -117 139 -46 56 -88 102
-93 102 -4 0 -8 -121 -8 -270z"/>
<path d="M161 4953 c0 -5 73 -70 162 -145 l161 -138 146 0 c81 0 150 3 153 6
4 4 -53 69 -125 145 l-131 139 -183 0 c-101 0 -184 -3 -183 -7z"/>
<path d="M1622 3627 c-45 -45 -82 -86 -82 -90 0 -4 77 -7 170 -7 94 0 170 3
170 8 0 8 -162 172 -170 172 -3 0 -42 -37 -88 -83z"/>
<path d="M1580 3120 l0 -270 -711 0 c-444 0 -709 -4 -707 -9 2 -6 37 -36 79
-68 42 -32 122 -93 177 -135 l101 -78 656 0 655 0 0 318 0 318 -44 37 c-94 78
-194 157 -200 157 -3 0 -6 -121 -6 -270z"/>
<path d="M3540 3121 l0 -271 -795 0 c-632 0 -793 -3 -789 -12 3 -7 74 -73 157
-145 l151 -133 253 0 253 0 0 -1280 0 -1280 1450 0 1450 0 0 1330 0 1330 -940
0 -940 0 1 249 0 248 -116 114 c-64 63 -121 116 -126 117 -5 2 -9 -105 -9
-267z m312 -1448 c5 -432 10 -467 72 -529 57 -57 163 -70 282 -33 58 18 78 30
126 79 86 88 98 136 98 396 l0 204 -115 0 -115 0 0 135 0 135 355 0 355 0 0
-490 0 -490 145 0 145 0 0 -135 0 -135 -385 0 -385 0 0 75 c0 41 -3 75 -6 75
-3 0 -26 -18 -52 -39 -64 -53 -162 -105 -252 -133 -66 -20 -95 -23 -245 -23
-161 0 -173 1 -233 26 -113 48 -192 126 -235 231 -21 50 -22 71 -25 411 l-3
357 -135 0 -134 0 0 135 0 135 369 0 369 0 4 -387z m258 -152 l0 -354 -51 5
c-63 6 -100 33 -116 84 -8 27 -12 159 -12 424 l0 385 89 -95 90 -95 0 -354z
m1060 -3 l0 -358 -90 0 -90 0 0 453 0 452 90 -95 89 -95 1 -357z m-1870 102
c0 -49 -3 -90 -8 -90 -4 0 -48 41 -97 90 l-90 90 98 0 97 0 0 -90z m1060 15
c0 -41 -3 -75 -8 -75 -4 0 -41 34 -82 75 l-74 75 82 0 82 0 0 -75z m1021 -631
l89 -66 0 -199 0 -199 -405 0 -406 0 -107 86 c-59 47 -108 90 -110 95 -2 5
172 9 417 9 l421 0 0 170 c0 94 3 170 6 170 4 0 47 -30 95 -66z m-1021 -256
c0 -58 3 -65 36 -99 l35 -36 -48 -35 c-69 -51 -106 -68 -181 -84 -160 -33
-296 -2 -456 108 -61 42 -211 158 -203 158 2 0 35 -14 72 -31 38 -17 98 -37
134 -45 89 -19 246 -18 334 2 79 18 198 69 237 102 14 12 28 21 33 22 4 0 7
-28 7 -62z"/>
</g>
</svg>
